<?xml version="1.0" standalone="no"?>
<!DOCTYPE svg PUBLIC "-//W3C//DTD SVG 20010904//EN"
 "http://www.w3.org/TR/2001/REC-SVG-20010904/DTD/svg10.dtd">
<svg version="1.0" xmlns="http://www.w3.org/2000/svg"
 width="890.000000pt" height="1280.000000pt" viewBox="0 0 890.000000 1280.000000"
 preserveAspectRatio="xMidYMid meet">
<metadata>
Created by potrace 1.15, written by Peter Selinger 2001-2017
</metadata>
<g transform="translate(0.000000,1280.000000) scale(0.100000,-0.100000)"
fill="#000000" stroke="none">
<path d="M1630 12123 c-62 -21 -144 -77 -180 -123 -17 -21 -43 -65 -58 -97
l-27 -58 -3 -778 -2 -778 -23 7 c-12 3 -69 24 -127 46 -134 51 -225 55 -312
15 -145 -66 -215 -201 -189 -361 17 -103 59 -181 155 -288 145 -162 355 -349
467 -415 l29 -17 0 -241 0 -241 -52 -26 c-29 -14 -110 -68 -179 -120 -138
-104 -252 -177 -403 -258 -153 -82 -206 -149 -206 -260 0 -71 25 -124 83 -177
84 -77 203 -123 321 -123 85 0 236 22 345 50 44 11 82 20 85 20 3 0 6 -29 6
-65 0 -60 -2 -66 -27 -82 -131 -82 -301 -244 -335 -321 -15 -33 -30 -156 -73
-580 -61 -610 -75 -769 -68 -805 7 -37 61 -97 107 -118 72 -33 129 -23 174 29
l23 27 -6 -80 c-14 -185 -38 -377 -81 -639 -28 -169 -43 -291 -40 -311 8 -43
71 -100 126 -115 57 -15 98 -1 177 61 62 50 67 52 77 34 31 -54 104 -118 175
-153 l75 -37 242 -3 241 -4 76 -111 c218 -322 470 -562 804 -764 133 -80 354
-194 707 -363 393 -188 603 -342 834 -610 133 -155 367 -694 458 -1055 75
-298 299 -1369 364 -1742 7 -39 16 -76 20 -82 4 -8 481 -10 1628 -9 l1623 3
-182 295 c-427 694 -637 1051 -876 1495 -155 287 -416 803 -458 905 -110 264
-466 933 -704 1320 -77 125 -159 308 -186 414 -28 111 -31 156 -26 516 1 141
0 271 -4 290 -3 19 -10 226 -14 460 -8 401 -10 429 -31 495 -29 91 -58 145
-125 230 -112 142 -194 341 -242 585 -25 127 -27 156 -31 500 -5 475 11 709
73 1065 45 255 143 609 191 693 60 103 79 212 48 278 -33 69 -104 97 -243 96
-220 -2 -506 -123 -625 -264 l-36 -43 0 1225 c0 788 -4 1241 -11 1269 -27 117
-116 227 -226 279 l-58 27 -1610 2 c-1443 2 -1615 1 -1655 -14z m3390 -1959
l0 -1325 -34 -137 c-104 -413 -185 -943 -216 -1411 l-11 -165 -84 -250 c-45
-138 -96 -281 -113 -318 -40 -87 -159 -451 -211 -643 -32 -118 -71 -296 -71
-321 0 -2 -620 -3 -1377 -2 l-1378 3 -3 2948 -2 2947 1750 0 1750 0 0 -1326z"/>
</g>
</svg>
